<svg width="589" height="136" viewBox="0 0 589 136" fill="none" xmlns="http://www.w3.org/2000/svg">
<mask id="mask0_1067_16786" style="mask-type:alpha" maskUnits="userSpaceOnUse" x="0" y="0" width="589" height="136">
<path d="M580.161 71.3242H588.998V120.036H580.161V114.4C578.143 118.505 574.246 120.941 568.609 120.941C559.145 120.941 552.325 113.217 552.325 102.361C552.325 91.4353 559.145 83.7806 568.609 83.7806C574.246 83.7806 578.143 86.2162 580.161 90.3219V71.3242ZM570.697 113.843C576.542 113.843 580.161 109.25 580.161 102.361C580.161 95.4715 576.542 90.8786 570.697 90.8786C564.99 90.8786 561.372 95.4715 561.372 102.361C561.372 109.25 564.99 113.843 570.697 113.843Z" fill="white"/>
<path d="M536.865 84.6172H545.703V120.038H536.865V114.401C534.777 118.507 530.811 120.873 525.592 120.873C517.172 120.873 512.161 115.654 512.161 106.886V84.6172H520.999V105.007C520.999 110.643 523.643 113.566 528.514 113.566C533.873 113.566 536.865 109.669 536.865 102.849V84.6172Z" fill="white"/>
<path d="M487.574 120.868C476.649 120.868 469.063 113.213 469.063 102.288C469.063 91.4321 476.649 83.7773 487.574 83.7773C498.499 83.7773 506.015 91.4321 506.015 102.288C506.015 113.213 498.499 120.868 487.574 120.868ZM487.574 113.77C493.211 113.77 497.038 109.108 497.038 102.288C497.038 95.4682 493.211 90.8754 487.574 90.8754C481.937 90.8754 478.11 95.4682 478.11 102.288C478.11 109.108 481.937 113.77 487.574 113.77Z" fill="white"/>
<path d="M453.692 120.036V71.3242H462.53V120.036H453.692Z" fill="white"/>
<path d="M447.126 102.033C446.151 113.376 437.453 121.1 425.205 121.1C410.87 121.1 401.267 110.453 401.267 95.7006C401.267 80.9478 410.87 70.3008 425.205 70.3008C436.896 70.3008 445.316 77.3292 446.708 87.9067H437.453C436.339 81.7133 431.538 77.8163 425.205 77.8163C416.576 77.8163 410.731 85.1927 410.731 95.7006C410.731 106.208 416.576 113.585 425.205 113.585C432.025 113.585 436.966 108.992 437.87 102.033H447.126Z" fill="white"/>
<path d="M354.21 104.167C354.628 110.151 358.455 113.84 364.161 113.84C368.058 113.84 371.19 111.752 372.303 108.342H380.724C379.401 115.927 372.79 120.868 364.161 120.868C353.166 120.868 345.512 113.283 345.512 102.357C345.512 91.5017 353.097 83.7773 363.883 83.7773C374.6 83.7773 381.071 91.1537 381.071 101.314C381.071 102.357 381.002 103.332 380.932 104.167H354.21ZM363.883 90.5274C359.081 90.5274 355.602 93.4502 354.558 97.9038H372.651C371.886 93.4502 368.685 90.5274 363.883 90.5274Z" fill="white"/>
<path d="M341.851 107.021C341.294 115.163 334.544 120.869 325.219 120.869C314.294 120.869 306.848 113.214 306.848 102.289C306.848 91.572 314.294 83.8477 325.219 83.8477C334.474 83.8477 340.876 89.0668 341.642 96.7911H332.943C332.108 93.1029 329.255 90.8761 325.219 90.8761C319.722 90.8761 315.894 95.4689 315.894 102.289C315.894 109.178 319.722 113.771 325.219 113.771C329.325 113.771 332.387 111.196 333.152 107.021H341.851Z" fill="white"/>
<path d="M287.368 83.7773C295.719 83.7773 300.729 88.9965 300.729 97.7647V120.033H291.891V99.6435C291.891 94.0069 289.317 91.0841 284.445 91.0841C279.018 91.0841 276.025 94.9811 276.025 101.801V120.033H267.188V84.6124H276.025V90.3187C278.113 86.2129 282.149 83.7773 287.368 83.7773Z" fill="white"/>
<path d="M233.324 104.167C233.741 110.151 237.568 113.84 243.275 113.84C247.172 113.84 250.303 111.752 251.417 108.342H259.837C258.515 115.927 251.904 120.868 243.275 120.868C232.28 120.868 224.625 113.283 224.625 102.357C224.625 91.5017 232.21 83.7773 242.996 83.7773C253.713 83.7773 260.185 91.1537 260.185 101.314C260.185 102.357 260.115 103.332 260.046 104.167H233.324ZM242.996 90.5274C238.195 90.5274 234.715 93.4502 233.672 97.9038H251.765C250.999 93.4502 247.798 90.5274 242.996 90.5274Z" fill="white"/>
<path d="M209.214 84.6124H218.051V118.641C218.051 129.845 211.788 135.482 199.958 135.482C189.659 135.482 183.675 130.958 182.909 123.373H191.747C192.234 126.574 195.365 128.592 199.958 128.592C206.013 128.592 209.214 125.391 209.214 119.128V113.561C207.196 117.528 203.299 119.824 197.592 119.824C188.128 119.824 181.309 112.378 181.309 101.801C181.309 91.2233 188.128 83.7773 197.592 83.7773C203.299 83.7773 207.196 86.1434 209.214 90.0403V84.6124ZM199.68 112.796C205.525 112.796 209.214 108.481 209.214 101.801C209.214 95.1899 205.525 90.8754 199.68 90.8754C193.974 90.8754 190.355 95.1899 190.355 101.801C190.355 108.481 193.974 112.796 199.68 112.796Z" fill="white"/>
<path d="M165.742 80.378V72.0273H174.928V80.378H165.742ZM165.951 120.043V84.6229H174.789V120.043H165.951Z" fill="white"/>
<path d="M148.383 120.036V71.3242H157.221V120.036H148.383Z" fill="white"/>
<path d="M130.77 120.036V71.3242H139.607V120.036H130.77Z" fill="white"/>
<path d="M96.8822 104.167C97.2997 110.151 101.127 113.84 106.833 113.84C110.73 113.84 113.862 111.752 114.975 108.342H123.395C122.073 115.927 115.462 120.868 106.833 120.868C95.8383 120.868 88.1836 113.283 88.1836 102.357C88.1836 91.5017 95.7687 83.7773 106.555 83.7773C117.272 83.7773 123.743 91.1537 123.743 101.314C123.743 102.357 123.674 103.332 123.604 104.167H96.8822ZM106.555 90.5274C101.753 90.5274 98.2739 93.4502 97.2301 97.9038H115.323C114.558 93.4502 111.357 90.5274 106.555 90.5274Z" fill="white"/>
<path d="M84.4728 91.7172H75.635V108.558C75.635 111.48 76.8876 112.872 80.0887 112.872H84.4728V120.04H77.5835C70.2071 120.04 66.7973 116.769 66.7973 109.81V91.7172H61.5781V84.6191H66.7973V74.668H75.635V84.6191H84.4728V91.7172Z" fill="white"/>
<path d="M43.2158 83.7773C51.5665 83.7773 56.5769 88.9965 56.5769 97.7647V120.033H47.7391V99.6435C47.7391 94.0069 45.1643 91.0841 40.2931 91.0841C34.8652 91.0841 31.8729 94.9811 31.8729 101.801V120.033H23.0352V84.6124H31.8729V90.3187C33.9606 86.2129 37.9967 83.7773 43.2158 83.7773Z" fill="white"/>
<path d="M4.00781 120.036V71.3242H13.1239V120.036H4.00781Z" fill="white"/>
<path d="M211.481 20.3969H202.643V37.2373C202.643 40.16 203.895 41.5518 207.097 41.5518H211.481V48.7194H204.591C197.215 48.7194 193.805 45.4487 193.805 38.4899V20.3969H188.586V13.2988H193.805V3.34766H202.643V13.2988H211.481V20.3969Z" fill="white"/>
<path d="M168.464 12.454C178.067 12.5236 183.565 17.1164 183.495 26.0237V48.7096H174.727V43.2817C172.918 47.2482 169.09 49.5447 163.732 49.5447C156.216 49.5447 151.484 45.1606 151.484 38.5497C151.484 31.9388 155.729 28.2506 164.776 27.3459L174.727 26.3717V25.467C174.727 21.3613 172.361 19.2736 168.255 19.2736C164.567 19.2736 162.062 20.9438 161.505 23.8665H152.598C153.572 16.6293 159.417 12.3844 168.464 12.454ZM165.75 42.9338C171.387 42.9338 174.727 39.1064 174.727 32.5651V32.2171L165.959 33.1218C162.062 33.5393 160.253 35.279 160.253 38.1321C160.253 41.1245 162.34 42.9338 165.75 42.9338Z" fill="white"/>
<path d="M119.851 32.8426C120.268 38.8272 124.096 42.5154 129.802 42.5154C133.699 42.5154 136.831 40.4277 137.944 37.0179H146.364C145.042 44.603 138.431 49.5438 129.802 49.5438C118.807 49.5438 111.152 41.9587 111.152 31.0333C111.152 20.1775 118.738 12.4531 129.524 12.4531C140.24 12.4531 146.712 19.8295 146.712 29.9894C146.712 31.0333 146.643 32.0075 146.573 32.8426H119.851ZM129.524 19.2032C124.722 19.2032 121.243 22.1259 120.199 26.5796H138.292C137.526 22.1259 134.325 19.2032 129.524 19.2032Z" fill="white"/>
<path d="M105.841 13.0938H108.137V21.0268H106.258C99.1602 21.0268 95.6112 24.8542 95.6112 32.7177V48.7231H86.7734V13.3025H95.6112V19.4959C97.7684 15.5294 101.387 13.0938 105.841 13.0938Z" fill="white"/>
<path d="M65.083 12.4564C73.4337 12.4564 78.444 17.6755 78.444 26.4437V48.712H69.6063V28.3226C69.6063 22.6859 67.0315 19.7632 62.1603 19.7632C56.7324 19.7632 53.7401 23.6601 53.7401 30.4798V48.712H44.9023V0H53.7401V18.9977C55.8278 14.892 59.8639 12.4564 65.083 12.4564Z" fill="white"/>
<path d="M39.1088 0V7.65474H24.1472V48.712H15.0311V7.65474H0V0H39.1088Z" fill="white"/>
</mask>
<g mask="url(#mask0_1067_16786)">
<rect x="-60" y="-41" width="673" height="179" fill="#ffffff"/>
</g>
</svg>
