<svg width="769" height="256" viewBox="0 0 769 256" fill="none" xmlns="http://www.w3.org/2000/svg">
<path fill-rule="evenodd" clip-rule="evenodd" d="M0 60.0005V120H60V240H120V120V60.0005H60H0Z" fill="white"/>
<rect x="120" y="60" width="60" height="60" transform="rotate(-90 120 60)" fill="#FE6E36"/>
<path d="M760.161 191.324H768.998V240.036H760.161V234.4C758.143 238.505 754.246 240.941 748.609 240.941C739.145 240.941 732.325 233.217 732.325 222.361C732.325 211.435 739.145 203.781 748.609 203.781C754.246 203.781 758.143 206.216 760.161 210.322V191.324ZM750.697 233.843C756.542 233.843 760.161 229.25 760.161 222.361C760.161 215.471 756.542 210.879 750.697 210.879C744.99 210.879 741.372 215.471 741.372 222.361C741.372 229.25 744.99 233.843 750.697 233.843Z" fill="white"/>
<path d="M716.865 204.617H725.703V240.038H716.865V234.401C714.777 238.507 710.811 240.873 705.592 240.873C697.172 240.873 692.161 235.654 692.161 226.886V204.617H700.999V225.007C700.999 230.643 703.643 233.566 708.514 233.566C713.873 233.566 716.865 229.669 716.865 222.849V204.617Z" fill="white"/>
<path d="M667.574 240.868C656.649 240.868 649.063 233.213 649.063 222.288C649.063 211.432 656.649 203.777 667.574 203.777C678.499 203.777 686.015 211.432 686.015 222.288C686.015 233.213 678.499 240.868 667.574 240.868ZM667.574 233.77C673.211 233.77 677.038 229.108 677.038 222.288C677.038 215.468 673.211 210.875 667.574 210.875C661.937 210.875 658.11 215.468 658.11 222.288C658.11 229.108 661.937 233.77 667.574 233.77Z" fill="white"/>
<path d="M633.692 240.036V191.324H642.53V240.036H633.692Z" fill="white"/>
<path d="M627.126 222.033C626.151 233.376 617.453 241.1 605.205 241.1C590.87 241.1 581.267 230.453 581.267 215.701C581.267 200.948 590.87 190.301 605.205 190.301C616.896 190.301 625.316 197.329 626.708 207.907H617.453C616.339 201.713 611.538 197.816 605.205 197.816C596.576 197.816 590.731 205.193 590.731 215.701C590.731 226.208 596.576 233.585 605.205 233.585C612.025 233.585 616.966 228.992 617.87 222.033H627.126Z" fill="white"/>
<path d="M534.21 224.167C534.628 230.151 538.455 233.84 544.161 233.84C548.058 233.84 551.19 231.752 552.303 228.342H560.724C559.401 235.927 552.79 240.868 544.161 240.868C533.166 240.868 525.512 233.283 525.512 222.357C525.512 211.502 533.097 203.777 543.883 203.777C554.6 203.777 561.071 211.154 561.071 221.314C561.071 222.357 561.002 223.332 560.932 224.167H534.21ZM543.883 210.527C539.081 210.527 535.602 213.45 534.558 217.904H552.651C551.886 213.45 548.685 210.527 543.883 210.527Z" fill="white"/>
<path d="M521.851 227.021C521.294 235.163 514.544 240.869 505.219 240.869C494.294 240.869 486.848 233.214 486.848 222.289C486.848 211.572 494.294 203.848 505.219 203.848C514.474 203.848 520.876 209.067 521.642 216.791H512.943C512.108 213.103 509.255 210.876 505.219 210.876C499.722 210.876 495.894 215.469 495.894 222.289C495.894 229.178 499.722 233.771 505.219 233.771C509.325 233.771 512.387 231.196 513.152 227.021H521.851Z" fill="white"/>
<path d="M467.368 203.777C475.719 203.777 480.729 208.996 480.729 217.765V240.033H471.891V219.644C471.891 214.007 469.317 211.084 464.445 211.084C459.018 211.084 456.025 214.981 456.025 221.801V240.033H447.188V204.612H456.025V210.319C458.113 206.213 462.149 203.777 467.368 203.777Z" fill="white"/>
<path d="M413.324 224.167C413.741 230.151 417.568 233.84 423.275 233.84C427.172 233.84 430.303 231.752 431.417 228.342H439.837C438.515 235.927 431.904 240.868 423.275 240.868C412.28 240.868 404.625 233.283 404.625 222.357C404.625 211.502 412.21 203.777 422.996 203.777C433.713 203.777 440.185 211.154 440.185 221.314C440.185 222.357 440.115 223.332 440.046 224.167H413.324ZM422.996 210.527C418.195 210.527 414.715 213.45 413.672 217.904H431.765C430.999 213.45 427.798 210.527 422.996 210.527Z" fill="white"/>
<path d="M389.214 204.612H398.051V238.641C398.051 249.845 391.788 255.482 379.958 255.482C369.659 255.482 363.675 250.958 362.909 243.373H371.747C372.234 246.574 375.365 248.592 379.958 248.592C386.013 248.592 389.214 245.391 389.214 239.128V233.561C387.196 237.528 383.299 239.824 377.592 239.824C368.128 239.824 361.309 232.378 361.309 221.801C361.309 211.223 368.128 203.777 377.592 203.777C383.299 203.777 387.196 206.143 389.214 210.04V204.612ZM379.68 232.796C385.525 232.796 389.214 228.481 389.214 221.801C389.214 215.19 385.525 210.875 379.68 210.875C373.974 210.875 370.355 215.19 370.355 221.801C370.355 228.481 373.974 232.796 379.68 232.796Z" fill="white"/>
<path d="M345.742 200.378V192.027H354.928V200.378H345.742ZM345.951 240.043V204.623H354.789V240.043H345.951Z" fill="white"/>
<path d="M328.383 240.036V191.324H337.221V240.036H328.383Z" fill="white"/>
<path d="M310.77 240.036V191.324H319.607V240.036H310.77Z" fill="white"/>
<path d="M276.882 224.167C277.3 230.151 281.127 233.84 286.833 233.84C290.73 233.84 293.862 231.752 294.975 228.342H303.395C302.073 235.927 295.462 240.868 286.833 240.868C275.838 240.868 268.184 233.283 268.184 222.357C268.184 211.502 275.769 203.777 286.555 203.777C297.272 203.777 303.743 211.154 303.743 221.314C303.743 222.357 303.674 223.332 303.604 224.167H276.882ZM286.555 210.527C281.753 210.527 278.274 213.45 277.23 217.904H295.323C294.558 213.45 291.357 210.527 286.555 210.527Z" fill="white"/>
<path d="M264.473 211.717H255.635V228.558C255.635 231.48 256.888 232.872 260.089 232.872H264.473V240.04H257.584C250.207 240.04 246.797 236.769 246.797 229.81V211.717H241.578V204.619H246.797V194.668H255.635V204.619H264.473V211.717Z" fill="white"/>
<path d="M223.216 203.777C231.566 203.777 236.577 208.996 236.577 217.765V240.033H227.739V219.644C227.739 214.007 225.164 211.084 220.293 211.084C214.865 211.084 211.873 214.981 211.873 221.801V240.033H203.035V204.612H211.873V210.319C213.961 206.213 217.997 203.777 223.216 203.777Z" fill="white"/>
<path d="M184.008 240.036V191.324H193.124V240.036H184.008Z" fill="white"/>
<path d="M391.481 140.397H382.643V157.237C382.643 160.16 383.895 161.552 387.097 161.552H391.481V168.719H384.591C377.215 168.719 373.805 165.449 373.805 158.49V140.397H368.586V133.299H373.805V123.348H382.643V133.299H391.481V140.397Z" fill="white"/>
<path d="M348.464 132.454C358.067 132.524 363.565 137.116 363.495 146.024V168.71H354.727V163.282C352.918 167.248 349.09 169.545 343.732 169.545C336.216 169.545 331.484 165.161 331.484 158.55C331.484 151.939 335.729 148.251 344.776 147.346L354.727 146.372V145.467C354.727 141.361 352.361 139.274 348.255 139.274C344.567 139.274 342.062 140.944 341.505 143.866H332.598C333.572 136.629 339.417 132.384 348.464 132.454ZM345.75 162.934C351.387 162.934 354.727 159.106 354.727 152.565V152.217L345.959 153.122C342.062 153.539 340.253 155.279 340.253 158.132C340.253 161.124 342.34 162.934 345.75 162.934Z" fill="white"/>
<path d="M299.851 152.843C300.268 158.827 304.096 162.515 309.802 162.515C313.699 162.515 316.831 160.428 317.944 157.018H326.364C325.042 164.603 318.431 169.544 309.802 169.544C298.807 169.544 291.152 161.959 291.152 151.033C291.152 140.177 298.738 132.453 309.524 132.453C320.24 132.453 326.712 139.83 326.712 149.989C326.712 151.033 326.643 152.008 326.573 152.843H299.851ZM309.524 139.203C304.722 139.203 301.243 142.126 300.199 146.58H318.292C317.526 142.126 314.325 139.203 309.524 139.203Z" fill="white"/>
<path d="M285.841 133.094H288.137V141.027H286.258C279.16 141.027 275.611 144.854 275.611 152.718V168.723H266.773V133.303H275.611V139.496C277.768 135.529 281.387 133.094 285.841 133.094Z" fill="white"/>
<path d="M245.083 132.456C253.434 132.456 258.444 137.676 258.444 146.444V168.712H249.606V148.323C249.606 142.686 247.032 139.763 242.16 139.763C236.732 139.763 233.74 143.66 233.74 150.48V168.712H224.902V120H233.74V138.998C235.828 134.892 239.864 132.456 245.083 132.456Z" fill="white"/>
<path d="M219.109 120V127.655H204.147V168.712H195.031V127.655H180V120H219.109Z" fill="white"/>
</svg>
