<svg width="164" height="42" viewBox="0 0 164 42" fill="none" xmlns="http://www.w3.org/2000/svg">
<path d="M42.6533 12.9783C39.8074 9.93236 35.3282 8.4676 30.9566 9.17573C27.2109 9.73836 23.9151 11.9016 21.9102 15.1221C19.9542 18.2553 19.475 22.0288 20.5899 25.4725C21.607 28.7221 24.1009 31.5061 27.2696 32.8933L27.5239 33L27.9053 32.2434L27.6608 32.1076C25.2941 30.7883 23.4946 28.7027 22.5948 26.2388C21.0789 22.2325 22.2427 17.489 25.431 14.6953C27.8955 12.5127 30.9664 11.6202 34.0764 12.1829C37.3429 12.7746 40.1399 14.899 41.7634 18.0031C43.8074 21.9221 43.201 26.8111 40.2181 30.4585L40.0617 30.6525L40.5898 31.2345L40.7952 31.1084C43.0347 29.7213 44.756 27.4028 45.5188 24.7643C46.7315 20.6707 45.6069 16.0436 42.6533 12.9686V12.9783Z" fill="#FE6E36"/>
<path d="M56.5249 29.4623C55.1529 28.4535 54.3144 26.9745 54 25.0157H56.8012C57.3919 27.523 59.1831 28.7767 62.1844 28.7767C63.5945 28.7767 64.6902 28.4731 65.4906 27.8756C66.2814 27.2782 66.6816 26.4456 66.6816 25.3781C66.6816 24.4672 66.4053 23.7718 65.8622 23.3115C65.3191 22.8511 64.3377 22.4789 62.9371 22.2145L59.2784 21.5289C57.6301 21.2253 56.4201 20.667 55.6578 19.8639C54.8861 19.0509 54.505 17.954 54.505 16.573C54.505 14.8394 55.1338 13.478 56.4105 12.4887C57.6777 11.4995 59.4118 11.0098 61.6127 11.0098C63.8137 11.0098 65.5382 11.4995 66.834 12.4691C68.1298 13.4388 68.9015 14.8394 69.1683 16.6611H66.4719C66.0432 14.3399 64.4139 13.1841 61.5842 13.1841C60.2503 13.1841 59.1927 13.4682 58.3923 14.0264C57.592 14.5847 57.2014 15.3487 57.2014 16.2987C57.2014 17.1508 57.4586 17.7973 57.9636 18.2086C58.4686 18.6298 59.3928 18.9726 60.7267 19.237L64.3663 19.952C66.0908 20.2948 67.358 20.8825 68.1679 21.7248C68.9778 22.5573 69.3875 23.6934 69.3875 25.1234C69.3875 26.9452 68.7396 28.3849 67.4343 29.4329C66.1289 30.4809 64.3377 31 62.0606 31C59.7834 31 57.9064 30.5005 56.5344 29.4917L56.5249 29.4623ZM75.9712 29.7071C74.5801 28.8648 73.5035 27.6797 72.7413 26.1714C71.9695 24.6631 71.5884 22.9295 71.5884 20.9902C71.5884 19.0509 71.9695 17.2977 72.7413 15.7796C73.513 14.2713 74.5897 13.096 75.9712 12.2537C77.3527 11.4114 78.9534 11 80.7447 11C82.5359 11 84.127 11.4212 85.5181 12.2537C86.9092 13.0862 87.9858 14.2615 88.748 15.7796C89.5198 17.288 89.9009 19.0313 89.9009 20.9902C89.9009 22.9491 89.5198 24.6533 88.748 26.1714C87.9763 27.6797 86.8996 28.8648 85.5181 29.7071C84.1366 30.5495 82.5359 30.9804 80.7447 30.9804C78.9534 30.9804 77.3623 30.5593 75.9712 29.7071ZM75.1423 25.0157C75.6758 26.1812 76.4285 27.0823 77.4004 27.7287C78.3722 28.3751 79.487 28.6983 80.7447 28.6983C82.0023 28.6983 83.1171 28.3751 84.0889 27.7287C85.0608 27.0823 85.8135 26.1812 86.347 25.0157C86.8806 23.8599 87.1474 22.5181 87.1474 20.9902C87.1474 19.4623 86.8806 18.1205 86.3566 16.9549C85.8325 15.7894 85.0798 14.8786 84.108 14.2419C83.1361 13.6053 82.0119 13.2821 80.7351 13.2821C79.4584 13.2821 78.3341 13.6053 77.3623 14.2419C76.3904 14.8786 75.6377 15.7796 75.1137 16.9549C74.5897 18.1205 74.3229 19.4721 74.3229 20.9902C74.3229 22.5083 74.5897 23.8501 75.1232 25.0157H75.1423ZM92.7593 11.2938H95.4556V28.3262H105.727V30.6964H92.7688V11.2938H92.7593ZM115.626 11.2938H118.675L126.192 30.6964H123.363L121.419 25.5054H112.758L110.786 30.6964H108.09L115.607 11.2938H115.626ZM120.59 23.2429L117.122 13.9971L113.625 23.2429H120.59ZM128.584 11.2938H137.407C139.446 11.2938 140.98 11.764 142.009 12.6944C143.047 13.6249 143.562 15.0059 143.562 16.8276C143.562 18.4829 143.114 19.7855 142.228 20.7453C141.342 21.7052 140.055 22.2928 138.369 22.4985L144 30.6866H140.694L135.196 22.5573H131.252V30.6866H128.555V11.2938H128.584ZM137.188 20.1969C138.445 20.1969 139.379 19.9324 139.989 19.3937C140.599 18.8648 140.903 18.0323 140.903 16.9158C140.903 15.7992 140.599 14.9961 139.989 14.4574C139.379 13.9187 138.445 13.6543 137.188 13.6543H131.28V20.1871H137.188V20.1969Z" fill="#FE6E36"/>
</svg>
